HIERARCHY
ROOT pelvis
{
  OFFSET 0 0 0
  CHANNELS 6 Xposition Yposition Zposition Zrotation Xrotation Yrotation
  JOINT pelvis_right_femur
  {
    OFFSET -11.43119 -3.542788 0.2090856
    CHANNELS 3 Zrotation Xrotation Yrotation
    JOINT right_femur_tibia
    {
      OFFSET -1.028693 -40.73281 5
      CHANNELS 3 Zrotation Xrotation Yrotation
      JOINT right_tibia_foot
      {
        OFFSET -0.5013517 -42.05707 -5
        CHANNELS 3 Zrotation Xrotation Yrotation
        End Site
        {
          OFFSET 0 -5 10
        }
      }
    }
  }
  JOINT pelvis_left_femur
  {
    OFFSET 11.43119 -3.542788 0.2090856
    CHANNELS 3 Zrotation Xrotation Yrotation
    JOINT left_femur_tibia
    {
      OFFSET 1.028693 -40.73281 5
      CHANNELS 3 Zrotation Xrotation Yrotation
      JOINT left_tibia_foot
      {
        OFFSET 0.3200228 -42.98253 -5
        CHANNELS 3 Zrotation Xrotation Yrotation
        End Site
        {
          OFFSET 0 -5 10
        }
      }
    }
  }
  JOINT pelvis_spine1
  {
    OFFSET 0 8.64413 -3.209807
    CHANNELS 3 Zrotation Xrotation Yrotation
    JOINT spine1
    {
      OFFSET 0 29.53957 -1.762685
      CHANNELS 3 Zrotation Xrotation Yrotation
      JOINT spine2
      {
        OFFSET 0 16.36153 -0.1422377
        CHANNELS 3 Zrotation Xrotation Yrotation
        JOINT neck
        {
          OFFSET 0 11.60093 5
          CHANNELS 3 Zrotation Xrotation Yrotation
          End Site
          {
            OFFSET 0 20 0
          }
        }
      }
      JOINT right_manubrium
      {
        OFFSET -4.671311 15.89868 4
        CHANNELS 3 Zrotation Xrotation Yrotation
        JOINT right_clavicle
        {
          OFFSET -13.601 1.573642 -2.74176
          CHANNELS 3 Zrotation Xrotation Yrotation
          JOINT right_humerus
          {
            OFFSET -0.06331682 -27.72702 2.252146
            CHANNELS 3 Zrotation Xrotation Yrotation
            JOINT right_radius
            {
              OFFSET -0.5696302 -23.92083 0.4042105
              CHANNELS 3 Zrotation Xrotation Yrotation
              End Site
              {
                OFFSET 0 -15 0
              }
            }
          }
        }
      }
      JOINT left_manubrium
      {
        OFFSET 4.671311 15.89868 4
        CHANNELS 3 Zrotation Xrotation Yrotation
        JOINT left_clavicle
        {
          OFFSET 13.601 1.573642 -2.74176
          CHANNELS 3 Zrotation Xrotation Yrotation
          JOINT left_humerus
          {
            OFFSET 0.000209614 -29.01858 1.101395
            CHANNELS 3 Zrotation Xrotation Yrotation
            JOINT left_radius
            {
              OFFSET -0.2288314 -24.59216 1.790347
              CHANNELS 3 Zrotation Xrotation Yrotation
              End Site
              {
                OFFSET 0 -15 0
              }
            }
          }
        }
      }
    }
  }
}
MOTION
Frames: 19
Frame Time: 0.0416666666667
0 48.26591 0 -2.057795 -19.00949 -0.4028251 -57.15874 -61.4593 -55.25184 -180 85.17101 -180 6.041713 5.937505 -0.7190197 67.97174 -51.58983 64.7775 -180 80.36085 -180 -4.839469 3.179096 -19.22422 -0.8606314 21.78867 1.291294 6.678062 14.02368 -9.497368 -11.16085 8.585427 5.325719 6.828215 -34.05489 -0.9263757 21.62347 -9.364486 22.44102 -62.87438 -28.9593 13.86891 0 -72.53719 0 5.166643 -7.590439 27.52464 -28.23168 -30.54472 -4.048343 52.8743 -22.06719 -24.29139 0 -77.82473 0 -12.90102 24.16831 -41.84935
0.07530337 48.39096 -0.02543063 -2.280079 -18.95161 -0.03315819 -57.06082 -61.07368 -55.2965 -180 85.29038 -180 6.079758 5.900397 -0.794827 68.00845 -51.94551 64.78039 -180 80.44036 -180 -4.78754 3.240362 -19.24518 -0.6448851 21.99101 1.270516 7.274817 13.97971 -9.793956 -11.2138 8.420591 5.269805 6.899768 -34.39957 -1.170962 22.51737 -10.33431 21.59272 -62.86028 -26.96122 11.05773 0 -73.06545 0 2.494949 -10.09802 25.88087 -28.49802 -30.69381 -4.002701 52.64873 -22.09041 -24.54247 0 -78.02509 0 -12.89525 24.15361 -41.81317
-0.01668675 48.35016 -0.02837048 -2.244865 -18.85244 0.2503661 -57.21492 -60.98848 -55.4825 -180 85.27037 -180 6.116106 5.791817 -0.8478121 68.18952 -52.12847 64.99919 -180 80.48834 -180 -4.743487 3.292797 -19.30428 -0.9777808 22.03833 1.330523 8.050712 14.00667 -10.14345 -11.42866 8.294695 5.31231 6.946178 -34.7488 -1.383686 23.89443 -11.9935 20.29293 -63.07579 -24.49738 7.063892 0 -73.48051 0 -0.9043906 -12.77231 23.89594 -28.62516 -30.95267 -3.707475 52.53276 -22.08762 -24.67385 0 -78.35916 0 -12.86621 24.11249 -41.78105
0.1143962 48.48548 0.0002225931 -2.478915 -18.67029 0.52575 -57.12973 -60.81051 -55.41614 -180 85.36717 -180 6.122305 5.785603 -0.9236994 68.39061 -52.31802 65.31435 -180 80.51763 -180 -4.722805 3.332008 -19.34834 -0.8482866 22.11823 1.064126 8.87405 13.98039 -10.66173 -11.7566 8.133445 5.461273 6.955424 -35.141 -1.490347 25.29828 -14.27914 18.81768 -63.54972 -21.81301 2.412991 0 -73.10633 0 -4.803271 -15.33115 21.55442 -28.82551 -31.16975 -3.175459 52.37573 -21.93434 -24.7755 0 -78.85809 0 -12.81712 24.03807 -41.75768
0.1999548 48.46894 0.02425345 -2.530136 -18.48353 0.5112259 -57.24689 -61.04888 -55.39981 -180 85.38229 -180 6.115548 5.775533 -1.033075 68.73368 -52.28282 65.7982 -180 80.46008 -180 -4.729542 3.330372 -19.4352 -0.9410396 22.26732 0.8392372 9.421205 13.80809 -10.97511 -12.11411 7.981058 5.694131 6.932277 -35.42906 -1.485177 26.40353 -16.99238 17.75563 -64.24898 -19.33424 -2.268682 0 -71.45036 0 -8.781087 -17.44882 18.91685 -28.79371 -31.40371 -2.553894 52.39148 -21.69646 -24.73756 0 -79.48198 0 -12.75055 23.93392 -41.73228
0.2019671 48.27588 0.02001377 -2.263859 -18.20901 0.2216584 -57.95376 -61.77509 -55.79174 -180 85.2272 -180 6.0936 5.762991 -1.081938 69.15372 -52.08961 66.53611 -180 80.33799 -180 -4.814947 3.288608 -19.45908 -1.443991 22.41454 0.7335717 9.571912 13.4156 -11.02676 -12.39636 7.893308 5.972113 6.920169 -35.48244 -1.374164 26.99152 -19.84286 17.3079 -65.10973 -17.34709 -6.424321 0 -68.38475 0 -12.27362 -18.84296 16.15744 -28.41645 -31.59587 -1.90873 52.61224 -21.38907 -24.60831 0 -80.192 0 -12.68748 23.80119 -41.71122
0.2744675 48.32008 0.09260768 -2.126043 -17.94452 -0.1237201 -58.27134 -62.26082 -55.91968 -180 85.19952 -180 6.022011 5.797755 -1.114575 69.28232 -51.79273 66.91806 -180 80.26066 -180 -4.899755 3.210386 -19.42649 -1.563626 22.27493 0.5351223 9.45605 13.47838 -11.07243 -12.66034 7.841141 6.225653 6.889085 -35.53531 -1.260869 27.02391 -22.55297 17.53164 -66.26899 -15.83333 -9.781739 0 -63.86665 0 -14.81008 -19.43633 13.49557 -28.19223 -31.73247 -1.528326 52.92582 -20.96293 -24.42263 0 -80.77724 0 -12.63597 23.65421 -41.68522
0.2968773 48.31601 0.1515211 -2.033083 -17.71916 -0.5325336 -58.51595 -62.72592 -56.12847 -180 85.18507 -180 5.958803 5.792653 -1.120043 69.43313 -51.57811 67.14846 -180 80.21527 -180 -4.988952 3.116221 -19.3459 -1.437655 22.24669 0.3993378 9.054477 13.53088 -10.91649 -12.9457 7.724725 6.386424 6.78688 -35.54438 -1.281195 26.6041 -24.90975 18.30091 -67.49221 -14.69855 -12.19009 0 -58.07678 0 -16.29494 -19.35953 11.05597 -28.01035 -31.89805 -1.359281 53.2833 -20.57681 -24.21837 0 -81.29814 0 -12.60068 23.4727 -41.65705
0.2420212 48.32428 0.1449935 -1.865646 -17.51083 -0.882153 -58.87663 -63.05074 -56.53201 -180 85.24501 -180 5.837244 5.717763 -1.00844 69.4237 -51.49463 67.17552 -180 80.23257 -180 -5.087352 3.014549 -19.12785 -1.343386 22.1902 0.355219 8.536533 13.67483 -10.71584 -13.17814 7.609111 6.451353 6.678992 -35.48438 -1.422664 25.79391 -26.80994 19.23662 -68.73768 -13.86539 -13.66621 0 -52.12195 0 -16.85212 -19.10972 9.013197 -27.82353 -32.11034 -1.300225 53.66553 -20.23687 -24.0134 0 -81.67775 0 -12.58584 23.26688 -41.6241
0.1672366 48.30518 0.1251012 -1.623184 -17.34856 -1.187714 -59.13007 -63.15608 -57.04257 -180 85.50726 -180 5.717076 5.515321 -0.9184246 69.32965 -51.50736 67.0683 -180 80.25052 -180 -5.179417 2.942582 -18.87332 -1.304167 22.10523 0.446523 7.987902 13.83123 -10.53081 -13.42491 7.542436 6.456368 6.5125 -35.33509 -1.643057 24.81633 -28.3432 20.20553 -69.92991 -13.37394 -14.4107 0 -46.69345 0 -16.73788 -18.98035 7.384672 -27.67088 -32.34279 -1.336868 54.00996 -19.95895 -23.84549 0 -81.88823 0 -12.59275 23.04884 -41.58216
-0.004956846 48.3289 0.1250752 -1.548418 -17.2907 -1.412691 -59.71984 -63.31145 -57.76623 -180 85.26142 -180 5.660596 5.871528 -0.5757902 69.27305 -51.53641 66.87303 -180 80.32076 -180 -5.250566 2.871602 -18.60352 -1.142645 22.08479 0.5693495 7.557008 13.99557 -10.36242 -13.74803 7.484884 6.455762 6.267054 -35.17406 -1.884113 23.92804 -29.60895 21.16237 -71.02278 -13.06969 -14.72298 0 -41.90444 0 -16.22476 -19.02485 6.037005 -27.62327 -32.59659 -1.453843 54.265 -19.74296 -23.72198 0 -81.97878 0 -12.61649 22.81539 -41.5344
-0.1237784 48.33184 0.1069935 -1.362078 -17.24771 -1.607856 -60.24397 -63.30586 -58.44816 -180 85.23342 -180 5.586884 6.092037 -0.2415538 69.05645 -51.59786 66.5928 -180 80.37009 -180 -5.329422 2.795216 -18.32915 -1.020739 22.05906 0.736268 7.187458 14.13878 -10.16511 -14.15655 7.410701 6.495367 5.941367 -34.99608 -2.077397 23.29333 -30.57553 22.0827 -71.81074 -12.89042 -14.71994 0 -37.7338 0 -15.54649 -19.11022 4.820072 -27.68188 -32.83838 -1.625484 54.42027 -19.5524 -23.64773 0 -81.95327 0 -12.64527 22.57036 -41.48499
-0.2132997 48.33732 0.08605167 -1.167402 -17.19759 -1.787981 -60.80841 -63.26267 -59.13389 -180 85.24915 -180 5.498209 6.210486 0.06862989 68.84737 -51.62925 66.36845 -180 80.4222 -180 -5.408165 2.741804 -18.07716 -0.8720867 22.00451 0.9000614 6.904941 14.23841 -9.973283 -14.66086 7.318541 6.588728 5.530847 -34.82632 -2.189095 22.92277 -31.30458 22.95523 -72.33931 -12.871 -14.5027 0 -34.40851 0 -14.78874 -19.30423 3.697832 -27.83302 -33.03465 -1.817126 54.48511 -19.37462 -23.62993 0 -81.83116 0 -12.68358 22.32133 -41.4256
-0.2643564 48.333 0.05947568 -0.9824916 -17.18319 -1.926101 -61.28824 -63.22454 -59.67075 -180 85.245 -180 5.431706 6.290879 0.2983853 68.5892 -51.63635 66.15606 -180 80.4889 -180 -5.46874 2.688984 -17.88683 -0.6939332 21.96682 1.060714 6.724053 14.33768 -9.773209 -15.21833 7.229022 6.728822 5.065664 -34.67102 -2.225919 22.76999 -31.7724 23.83521 -72.57742 -13.06612 -14.04762 0 -31.96391 0 -13.99138 -19.63162 2.654285 -28.02471 -33.21193 -2.060964 54.48457 -19.23371 -23.65916 0 -81.63326 0 -12.71983 22.06856 -41.36648
-0.2857513 48.33183 0.05119797 -0.8086854 -17.17705 -1.996557 -61.6694 -63.19543 -60.056 -180 85.23779 -180 5.367489 6.365462 0.4560526 68.33548 -51.63681 66.00156 -180 80.52809 -180 -5.516965 2.662192 -17.77594 -0.5277434 21.91653 1.155871 6.674353 14.39811 -9.643194 -15.73426 7.148482 6.90044 4.618073 -34.55621 -2.173351 22.7374 -32.27374 24.55762 -72.85166 -13.26812 -13.70464 0 -30.08236 0 -13.40763 -20.00359 1.684026 -28.1816 -33.34498 -2.254167 54.46767 -19.11286 -23.73408 0 -81.38414 0 -12.75947 21.81565 -41.29867
-0.2936641 48.33448 0.0575159 -0.6588388 -17.16258 -1.984255 -61.98357 -63.18101 -60.30623 -180 85.18764 -180 5.323678 6.397817 0.542685 68.13019 -51.63041 65.95834 -180 80.56355 -180 -5.538346 2.657883 -17.72465 -0.3855824 21.87555 1.2451 6.740702 14.43769 -9.531032 -16.16196 7.06118 7.076576 4.226515 -34.49322 -2.059259 22.78818 -32.70748 25.17903 -73.08712 -13.43323 -13.40949 0 -28.55447 0 -13.03539 -20.33575 0.721448 -28.30473 -33.43359 -2.439662 54.42259 -19.0209 -23.8819 0 -81.13884 0 -12.80705 21.55957 -41.23524
-0.2868198 48.33623 0.05987318 -0.5183558 -17.14917 -1.883049 -62.25872 -63.16767 -60.4312 -180 85.14351 -180 5.302133 6.410356 0.5086307 67.97673 -51.62087 66.00279 -180 80.59528 -180 -5.540201 2.662663 -17.76506 -0.2104779 21.89699 1.327196 6.830315 14.43098 -9.448887 -16.48877 6.962204 7.236194 3.896807 -34.51367 -1.911932 22.82185 -33.10899 25.71463 -73.31732 -13.53646 -13.17753 0 -27.23968 0 -12.88628 -20.62357 -0.2379665 -28.40808 -33.49912 -2.611088 54.36842 -18.97675 -24.06169 0 -80.93209 0 -12.8506 21.30492 -41.17719
-0.2539986 48.34571 0.0667362 -0.4045703 -17.11525 -1.740282 -62.45396 -63.18817 -60.40686 -180 85.11443 -180 5.29318 6.406832 0.4123503 67.84807 -51.62214 66.09915 -180 80.64421 -180 -5.528923 2.682905 -17.86863 0.01786956 21.93079 1.395893 6.873092 14.38161 -9.36474 -16.74391 6.831924 7.384229 3.625221 -34.61017 -1.746834 22.8022 -33.45541 26.18204 -73.57603 -13.57276 -12.99063 0 -26.06463 0 -12.90794 -20.82135 -1.214929 -28.55553 -33.5343 -2.806769 54.2801 -18.94991 -24.28 0 -80.76628 0 -12.89689 21.06039 -41.13033
-0.213616 48.36219 0.07615307 -0.3032263 -17.06256 -1.564173 -62.59688 -63.22378 -60.28832 -180 85.09333 -180 5.285395 6.351079 0.299701 67.73685 -51.62803 66.23363 -180 80.70363 -180 -5.49829 2.70774 -18.0117 0.2450725 21.97734 1.454061 6.864788 14.30913 -9.267655 -16.93758 6.648787 7.52609 3.418521 -34.77597 -1.570276 22.75498 -33.74162 26.56113 -73.87295 -13.52586 -12.8505 0 -24.9731 0 -13.05914 -20.90552 -2.233473 -28.72852 -33.55053 -3.006038 54.16671 -18.94549 -24.51074 0 -80.65086 0 -12.93239 20.84017 -41.09825
